<?xml version="1.0" encoding="UTF-8"?><svg id="Layer_2" xmlns="http://www.w3.org/2000/svg" viewBox="0 0 37.53 37.53"><defs><style>.cls-1{fill:#000;}.cls-1,.cls-2{stroke-width:0px;}.cls-2{fill:#f7df1e;}</style></defs><g id="logo_set"><g id="javascript"><path class="cls-2" d="M0,0h37.53v37.53H0V0Z"/><path class="cls-1" d="M9.87,31.36l2.87-1.74c.55.98,1.06,1.81,2.27,1.81s1.89-.45,1.89-2.22v-11.99h3.53v12.04c0,3.65-2.14,5.32-5.26,5.32-2.82,0-4.46-1.46-5.29-3.22M22.34,30.98l2.87-1.66c.76,1.23,1.74,2.14,3.48,2.14,1.46,0,2.39-.73,2.39-1.74,0-1.21-.96-1.64-2.57-2.34l-.88-.38c-2.54-1.08-4.23-2.44-4.23-5.31,0-2.65,2.02-4.66,5.16-4.66,2.24,0,3.85.78,5.01,2.82l-2.75,1.76c-.6-1.08-1.26-1.51-2.27-1.51s-1.69.65-1.69,1.51c0,1.06.65,1.49,2.17,2.14l.88.38c3,1.28,4.69,2.59,4.69,5.54,0,3.17-2.49,4.91-5.84,4.91s-5.39-1.56-6.42-3.6"/></g></g></svg>