<?xml version="1.0" encoding="UTF-8"?><svg id="Layer_2" xmlns="http://www.w3.org/2000/svg" viewBox="0 0 43.06 42"><defs><style>.cls-1{fill:#1b1f23;fill-rule:evenodd;stroke-width:0px;}</style></defs><g id="logo_set"><path class="cls-1" d="M21.53,0C9.64,0,0,9.64,0,21.53c0,9.53,6.16,17.57,14.72,20.43,1.08.19,1.48-.46,1.48-1.02,0-.51-.03-2.21-.03-4.01-5.41,1-6.81-1.32-7.24-2.53-.24-.62-1.29-2.53-2.21-3.04-.75-.4-1.83-1.4-.03-1.43,1.7-.03,2.91,1.56,3.31,2.21,1.94,3.26,5.03,2.34,6.27,1.78.19-1.4.75-2.34,1.37-2.88-4.79-.54-9.8-2.4-9.8-10.63,0-2.34.83-4.28,2.21-5.79-.22-.54-.97-2.75.22-5.71,0,0,1.8-.57,5.92,2.21,1.72-.48,3.55-.73,5.38-.73s3.66.24,5.38.73c4.12-2.8,5.92-2.21,5.92-2.21,1.18,2.96.43,5.17.22,5.71,1.37,1.51,2.21,3.42,2.21,5.79,0,8.26-5.03,10.09-9.82,10.63.78.67,1.45,1.96,1.45,3.98,0,2.88-.03,5.19-.03,5.92,0,.57.4,1.24,1.48,1.02,8.5-2.85,14.67-10.93,14.67-20.43C43.06,9.64,33.43,0,21.53,0Z"/></g></svg>