<?xml version="1.0" encoding="UTF-8"?><svg id="Layer_2" xmlns="http://www.w3.org/2000/svg" viewBox="0 0 42 42"><defs><style>.cls-1{fill:#f05133;stroke-width:0px;}</style></defs><g id="logo_set"><path class="cls-1" d="M41.21,19.13L22.87.79c-1.06-1.06-2.77-1.06-3.82,0l-3.81,3.81,4.83,4.83c1.12-.38,2.41-.12,3.3.77.9.9,1.15,2.2.76,3.33l4.66,4.66c1.13-.39,2.43-.14,3.33.76,1.26,1.26,1.26,3.29,0,4.55-1.26,1.26-3.29,1.26-4.55,0-.95-.95-1.18-2.34-.7-3.5l-4.34-4.34v11.43c.31.15.6.35.85.61,1.26,1.26,1.26,3.29,0,4.55-1.26,1.26-3.3,1.26-4.55,0-1.26-1.26-1.26-3.3,0-4.55.31-.31.67-.54,1.05-.7v-11.53c-.38-.16-.74-.39-1.05-.7-.95-.95-1.18-2.35-.69-3.52l-4.76-4.76L.79,19.04c-1.06,1.06-1.06,2.77,0,3.83l18.34,18.34c1.06,1.06,2.77,1.06,3.83,0l18.25-18.25c1.06-1.06,1.06-2.77,0-3.83"/></g></svg>