<?xml version="1.0" encoding="UTF-8"?><svg id="Layer_2" xmlns="http://www.w3.org/2000/svg" xmlns:xlink="http://www.w3.org/1999/xlink" viewBox="0 0 600.94 841.81"><defs><style>.cls-1{fill:#2062af;}.cls-1,.cls-2,.cls-3,.cls-4,.cls-5,.cls-6,.cls-7,.cls-8,.cls-9{stroke-width:0px;}.cls-2,.cls-9{fill:#000;}.cls-3{fill:url(#Dégradé_sans_nom_4-2);}.cls-4{fill:url(#Dégradé_sans_nom_4);}.cls-5{fill:url(#Dégradé_sans_nom_2-2);}.cls-6{fill:url(#Dégradé_sans_nom_2);}.cls-7{fill:#3c9cd7;}.cls-8{fill:#fff;}.cls-9{isolation:isolate;opacity:.05;}</style><linearGradient id="Dégradé_sans_nom_2" x1="-2312.84" y1="553.12" x2="-2312.84" y2="521.92" gradientTransform="translate(10948.64 -2054.85) scale(4.64)" gradientUnits="userSpaceOnUse"><stop offset=".39" stop-color="#d1d3d4" stop-opacity="0"/><stop offset="1" stop-color="#d1d3d4"/></linearGradient><linearGradient id="Dégradé_sans_nom_2-2" x1="-2273.86" y1="537.56" x2="-2273.86" y2="505.13" xlink:href="#Dégradé_sans_nom_2"/><linearGradient id="Dégradé_sans_nom_4" x1="-2331.61" y1="567.03" x2="-2256.67" y2="567.03" gradientTransform="translate(10948.64 -2054.85) scale(4.64)" gradientUnits="userSpaceOnUse"><stop offset="0" stop-color="#e8e7e5"/><stop offset="1" stop-color="#fff"/></linearGradient><linearGradient id="Dégradé_sans_nom_4-2" x1="-2335.05" y1="513.07" x2="-2253.7" y2="513.07" xlink:href="#Dégradé_sans_nom_4"/></defs><g id="logo_set"><g id="css"><path class="cls-1" d="M544.6,776.07l-244.13,65.73-244.13-65.73L0,165.75h600.94l-56.34,610.33Z"/><path class="cls-7" d="M300.47,215.18v574.2l.55.15,197.56-53.2,45.6-521.15h-243.72Z"/><path class="cls-2" d="M161.92,76.08v-36.33h53V0h-92.75v112.35h92.75v-36.27h-53ZM310.26,39.75h37.05V0h-92.76v39.75c12.41,12.41,18.88,18.35,36.83,36.3-10.49,0-36.83.04-36.83.04v36.27h92.76v-36.27l-37.05-36.33h0ZM441.73,39.75h37.05V0h-92.76v39.75c12.41,12.41,18.89,18.35,36.83,36.3-10.49,0-36.83.04-36.83.04v36.27h92.76v-36.27l-37.05-36.33h0Z"/><path class="cls-8" d="M300.25,367.79l-174.73,72.77,5.79,72.05,168.94-72.23,179.71-76.83,7.45-73.7-187.16,77.95h0Z"/><path class="cls-6" d="M125.52,440.56l5.79,72.05,168.94-72.23v-72.59l-174.73,72.77Z"/><path class="cls-5" d="M487.41,289.84l-187.16,77.95v72.59l179.71-76.83,7.45-73.7Z"/><path class="cls-4" d="M125.79,440.56l5.8,72.05,259.21.83-5.8,96.06-85.3,24.01-81.99-20.7-4.97-59.63h-76.19l9.94,115.11,154.04,45.55,153.2-44.72,19.88-228.56H125.79Z"/><path class="cls-9" d="M300.25,440.56H125.52l5.79,72.05,168.94.54v-72.59h0ZM300.25,633.28l-.83.23-81.98-20.7-4.97-59.63h-76.19l9.94,115.11,154.03,45.55v-80.56Z"/><path class="cls-3" d="M109.78,289.84h377.63l-7.45,73.7H118.89l-9.11-73.7h0Z"/><path class="cls-9" d="M300.25,289.84H109.78l9.11,73.7h181.36v-73.7h0Z"/></g></g></svg>