<?xml version="1.0" encoding="UTF-8"?><svg id="Layer_2" xmlns="http://www.w3.org/2000/svg" viewBox="0 0 30.22 42.66"><defs><style>.cls-1{fill:#000;}.cls-1,.cls-2,.cls-3,.cls-4,.cls-5{stroke-width:0px;}.cls-2{fill:#e44d26;}.cls-3{fill:#ebebeb;}.cls-4{fill:#f16529;}.cls-5{fill:#fff;}</style></defs><g id="logo_set"><g id="html"><path class="cls-2" d="M30.22,8.38l-2.75,30.84-12.38,3.43-12.34-3.43L0,8.38h30.22,0Z"/><path class="cls-4" d="M15.11,40.03l10-2.77,2.35-26.36h-12.35v29.13Z"/><path class="cls-3" d="M9.76,18.47h5.35v-3.78H5.62l.09,1.01.93,10.43h8.47v-3.78h-5.01l-.35-3.87ZM10.61,28.02h-3.8l.53,5.94,7.75,2.15h.02v-3.94h-.02s-4.21-1.13-4.21-1.13l-.27-3.02h0Z"/><path class="cls-1" d="M2.81,0h1.92v1.9h1.76V0h1.92v5.75h-1.92v-1.93h-1.76v1.93h-1.92V0h0ZM10.94,1.91h-1.69V0h5.31v1.91h-1.69v3.84h-1.92V1.91h0ZM15.4,0h2l1.23,2.02,1.23-2.02h2.01v5.75h-1.91v-2.85l-1.32,2.05h-.03l-1.32-2.05v2.85h-1.88V0ZM22.83,0h1.92v3.85h2.7v1.9h-4.63V0h0Z"/><path class="cls-5" d="M15.1,26.13h4.66l-.44,4.91-4.22,1.14v3.94l7.76-2.15.06-.64.89-9.96.09-1.02h-8.79v3.78h0ZM15.1,18.46h0s9.14,0,9.14,0l.08-.85.17-1.92.09-1.01h-9.48v3.77h0Z"/></g></g></svg>